<?xml version="1.0" encoding="utf-8"?>

<!DOCTYPE svg PUBLIC "-//W3C//DTD SVG 1.1//EN" "http://www.w3.org/Graphics/SVG/1.1/DTD/svg11.dtd">
<!-- Uploaded to: SVG Repo, www.svgrepo.com, Generator: SVG Repo Mixer Tools -->
<svg fill="#000000" version="1.1" id="Layer_1" xmlns="http://www.w3.org/2000/svg" xmlns:xlink="http://www.w3.org/1999/xlink" 
	 width="800px" height="800px" viewBox="0 0 70 70" enable-background="new 0 0 70 70" xml:space="preserve">
<g>
	<path d="M61.917,3.583h-53c-1.104,0-2.334,1.289-2.334,2.394v26c0,1.104,0.896,2,2,2s2-0.896,2-2V7.583h49v49H34.917
		c-1.104,0-2,0.896-2,2s0.896,2,2,2h27c1.104,0,1.666-0.502,1.666-1.606v-53C63.583,4.872,63.021,3.583,61.917,3.583z"/>
	<path d="M29.917,17.583h22c0.553,0,1-0.447,1-1s-0.447-1-1-1h-22c-0.553,0-1,0.447-1,1S29.364,17.583,29.917,17.583z"/>
	<path d="M17.917,17.583h4c0.553,0,1-0.447,1-1s-0.447-1-1-1h-4c-0.553,0-1,0.447-1,1S17.364,17.583,17.917,17.583z"/>
	<path d="M29.917,27.583h22c0.553,0,1-0.447,1-1s-0.447-1-1-1h-22c-0.553,0-1,0.447-1,1S29.364,27.583,29.917,27.583z"/>
	<path d="M17.917,27.583h4c0.553,0,1-0.447,1-1s-0.447-1-1-1h-4c-0.553,0-1,0.447-1,1S17.364,27.583,17.917,27.583z"/>
	<path d="M29.917,37.583h22c0.553,0,1-0.447,1-1s-0.447-1-1-1h-22c-0.553,0-1,0.447-1,1S29.364,37.583,29.917,37.583z"/>
	<path d="M17.917,37.583h4c0.553,0,1-0.447,1-1s-0.447-1-1-1h-4c-0.553,0-1,0.447-1,1S17.364,37.583,17.917,37.583z"/>
	<path d="M51.917,45.583h-17c-0.553,0-1,0.447-1,1s0.447,1,1,1h17c0.553,0,1-0.447,1-1S52.47,45.583,51.917,45.583z"/>
	<path d="M30.865,50.583L9.813,38.458c-0.619-0.357-1.443-0.357-2.063,0s-1.167,1.018-1.167,1.732v24.25
		c0,0.715,0.548,1.375,1.167,1.732c0.31,0.179,0.842,0.268,1.188,0.268s0.674-0.089,0.983-0.268l20.988-12.125
		c0.619-0.357,0.984-1.018,0.984-1.732S31.484,50.94,30.865,50.583z M10.583,60.977V43.654l15,8.661L10.583,60.977z"/>
	<path d="M20.934,53.147c0.171,0.113,0.363,0.168,0.554,0.168c0.323,0,0.641-0.156,0.833-0.445c0.307-0.46,0.183-1.08-0.277-1.387
		l-6-4c-0.461-0.306-1.081-0.183-1.387,0.277c-0.307,0.46-0.183,1.08,0.277,1.387L20.934,53.147z"/>
</g>
</svg>